<svg id="Layer_1" data-name="Layer 1" xmlns="http://www.w3.org/2000/svg" viewBox="0 0 409.81 200.09"><defs><style>.cls-1,.cls-2{fill:#fff;}.cls-2{opacity:0.75;}.cls-2,.cls-5,.cls-6,.cls-7,.cls-8,.cls-9{isolation:isolate;}.cls-3{fill:#e71f58;}.cls-4{fill:none;}.cls-6,.cls-7,.cls-8,.cls-9{font-size:19.8px;fill:#8ed7ed;font-family:Philosopher;}.cls-6{letter-spacing:0.28em;}.cls-7{letter-spacing:0.27em;}.cls-8{letter-spacing:0.26em;}.cls-9{letter-spacing:0.28em;}</style></defs><title>logo-01</title><path class="cls-1" d="M11.92,118.1h9.66v67.62H11.92Zm15.31,38.64v-9.66H48v9.66ZM63.44,118.1v67.62H53.78v-29h-.15v-9.66h.15v-29Z" transform="translate(-11.92 -12.02)"/><path class="cls-2" d="M102,117.41v9.69a25,25,0,0,0,0,49.61v9.69a34.6,34.6,0,0,1,0-69Z" transform="translate(-11.92 -12.02)"/><path class="cls-3" d="M139.39,151.9a34.61,34.61,0,0,1-31.86,34.5v-9.69a25,25,0,0,0,0-49.61v-9.69A34.61,34.61,0,0,1,139.39,151.9Z" transform="translate(-11.92 -12.02)"/><path class="cls-1" d="M190.84,139.73c0,12.68-8.45,22.64-22.74,22.64H153.81v23.35h-9.66v-33h24c7,0,13-3.62,13-12.38s-6.54-12.57-13.58-12.57H144.15V118.1h20.93C182.69,118.1,190.84,127,190.84,139.73Z" transform="translate(-11.92 -12.02)"/><path class="cls-1" d="M230.7,118.1v9.66H192.06V118.1Zm-38.64,38.64v-9.53h33.81v9.53Zm9.66,19.32h29v9.66H192.06V176h9.66Z" transform="translate(-11.92 -12.02)"/><path class="cls-1" d="M285.43,185.72H272.55l-27.37-29.79v29.79h-9.66V118.1h9.66v29.78l25.76-29.78h12.88L254,151.2Z" transform="translate(-11.92 -12.02)"/><path class="cls-1" d="M290.12,185.72V118.1h9.66v67.62Z" transform="translate(-11.92 -12.02)"/><path class="cls-1" d="M360,151.91c0,18.71-12.48,33.81-34.52,33.81H305.21v-9.66H328c13.18,0,22.34-10.77,22.34-24.16s-9.16-24.14-22.34-24.14H305.21V118.1h20.22C348,118.1,360,133.19,360,151.91Z" transform="translate(-11.92 -12.02)"/><path class="cls-1" d="M118.4,169.27a22,22,0,0,1-30.94-30.93l3.42,3.41a17.24,17.24,0,0,0,24.1,24.1Zm.27-7.1a17.24,17.24,0,0,0-24.11-24.1l-3.41-3.42a22,22,0,0,1,30.93,30.93Z" transform="translate(-11.92 -12.02)"/><path class="cls-4" d="M329.24,109a19.69,19.69,0,0,0,6,.94,19.93,19.93,0,0,0,16.27-31.47C350,90.87,341.64,102.25,329.24,109Z" transform="translate(-11.92 -12.02)"/><path class="cls-2" d="M340.44,70.76a14,14,0,0,0-3.59-1.05c-1.47,14.17-7.89,22.79-19.5,29a19.88,19.88,0,0,0,2,3.27C332,95.28,340.44,83.66,340.44,70.76Z" transform="translate(-11.92 -12.02)"/><path class="cls-3" d="M346.11,73.26a12.58,12.58,0,0,0-3.41-1.77c-.21,13-9,25.28-22.34,31.71a20.2,20.2,0,0,0,3,2.77A41.44,41.44,0,0,0,346.11,73.26Z" transform="translate(-11.92 -12.02)"/><path class="cls-1" d="M360.14,89.22a25,25,0,0,0-33.53-23.11,19.13,19.13,0,0,0-.81-4.63c-1.42-5.06-4.14-9.38-7.48-10.37-2.73-.8-5.2.94-6,1.61a1.49,1.49,0,1,0,2,1.4,2,2,0,0,0,0-.35c1.22-.74,3.84-2.35,7.08,2,3.12,4.15,3.47,11.09,3.47,11.09l-.84.41h0s-3.81-7.54-8.47-8.59a6.6,6.6,0,0,0-6.95,2.41h0a1.48,1.48,0,0,0-.72,1.27,1.5,1.5,0,1,0,3,0,1.44,1.44,0,0,0-.1-.5h0s.87-2.65,4.54-1.23c3,1.15,5.84,6,6.79,7.69A25.06,25.06,0,0,0,334,114.71h5c7.9-1.56,10.35-4.77,15.43-4.78,2.65,0,4.18,3.79,4.53,4.78h1.25V89.22ZM323.37,106a20.2,20.2,0,0,1-3-2.77c-.35-.4-.69-.81-1-1.23a19.93,19.93,0,0,1,15.91-32,20.38,20.38,0,0,1,2.59.19,19.71,19.71,0,0,1,4.28,1.06c.18.06.37.12.55.2a20.13,20.13,0,0,1,4.3,2.4l.41.31c.23,13.48-8.73,26.24-22.55,32.8C324.33,106.65,323.84,106.32,323.37,106Zm11.91,4a19.69,19.69,0,0,1-6-.94c12.4-6.75,20.79-18.13,22.31-30.53A19.93,19.93,0,0,1,335.32,110Z" transform="translate(-11.92 -12.02)"/><circle class="cls-2" cx="311.06" cy="70.8" r="3.18"/><path class="cls-1" d="M421.06,50.9c-5.75-22.81-38.75-9.61-38.75-9.61,3-17.45-6.72-24.85-14.24-27.92a17.8,17.8,0,0,0-22.35,7.78c-8.09,14.9-3.87,41.61-4,45l5.64,3.07S346,63.05,346,62.39c-.43-5.07-3.47-21.51,2.48-36C354,12.9,365.34,17.27,369,18.81c11.11,4.69,7.9,23.93,7.9,23.93a74.89,74.89,0,0,0-21.67,34.49l2.11,4.2c2.45-6.36,11.86-33.81,29.64-37.87,42.32-9.65,38.8,31.71-5.34,35.63-.27,0,32.81,19.51,22.33,32.9C390.72,129,358.84,96.21,358.84,96.21L358.1,102c36.78,43.11,76.84,4,33.79-20.49C391.63,81.34,427,74.4,421.06,50.9Z" transform="translate(-11.92 -12.02)"/><g class="cls-5"><text class="cls-6" transform="translate(62.2 195.89)">hope of kids &amp; mo</text><text class="cls-7" transform="translate(306.62 195.89)">m</text><text class="cls-8" transform="translate(327.51 195.89)">’</text><text class="cls-9" transform="translate(337.23 195.89)">s</text></g></svg>